<mxfile host="65bd71144e">
    <diagram id="Tgz0-d4jHKlGSeKZeXzf" name="Page-1">
        <mxGraphModel dx="994" dy="624" grid="1" gridSize="10" guides="1" tooltips="1" connect="1" arrows="1" fold="1" page="1" pageScale="1" pageWidth="850" pageHeight="1100" math="0" shadow="0">
            <root>
                <mxCell id="0"/>
                <mxCell id="1" parent="0"/>
                <mxCell id="7" value="" style="shape=umlLifeline;participant=umlActor;perimeter=lifelinePerimeter;whiteSpace=wrap;html=1;container=1;collapsible=0;recursiveResize=0;verticalAlign=top;spacingTop=36;outlineConnect=0;size=90;" parent="1" vertex="1">
                    <mxGeometry x="100.82" y="50" width="60" height="910" as="geometry"/>
                </mxCell>
                <mxCell id="9" value="UI" style="shape=umlLifeline;perimeter=lifelinePerimeter;whiteSpace=wrap;html=1;container=1;collapsible=0;recursiveResize=0;outlineConnect=0;lifelineDashed=0;" parent="1" vertex="1">
                    <mxGeometry x="390.82" y="80" width="100" height="880" as="geometry"/>
                </mxCell>
                <mxCell id="10" value="Database" style="shape=umlLifeline;perimeter=lifelinePerimeter;whiteSpace=wrap;html=1;container=1;collapsible=0;recursiveResize=0;outlineConnect=0;lifelineDashed=0;" parent="1" vertex="1">
                    <mxGeometry x="640.82" y="80" width="100" height="880" as="geometry"/>
                </mxCell>
                <mxCell id="40" value="" style="html=1;points=[];perimeter=orthogonalPerimeter;" parent="10" vertex="1">
                    <mxGeometry x="47" y="480" width="10" height="60" as="geometry"/>
                </mxCell>
                <mxCell id="11" value="loop" style="shape=umlFrame;whiteSpace=wrap;html=1;width=40;height=20;" parent="1" vertex="1">
                    <mxGeometry x="70.82" y="223" width="720" height="200" as="geometry"/>
                </mxCell>
                <mxCell id="12" value="alt" style="shape=umlFrame;whiteSpace=wrap;html=1;width=40;height=20;" parent="1" vertex="1">
                    <mxGeometry x="90.82" y="290" width="660" height="100" as="geometry"/>
                </mxCell>
                <mxCell id="15" value="ouvrir un site" style="html=1;verticalAlign=bottom;endArrow=open;entryX=0.495;entryY=0.104;entryDx=0;entryDy=0;entryPerimeter=0;exitX=1.05;exitY=0.076;exitDx=0;exitDy=0;exitPerimeter=0;endFill=0;" parent="1" source="19" target="9" edge="1">
                    <mxGeometry width="80" relative="1" as="geometry">
                        <mxPoint x="240.82" y="180" as="sourcePoint"/>
                        <mxPoint x="320.82" y="180" as="targetPoint"/>
                    </mxGeometry>
                </mxCell>
                <mxCell id="16" value="demade d'inscription" style="html=1;verticalAlign=bottom;endArrow=open;dashed=1;endSize=8;entryX=1.15;entryY=0.156;entryDx=0;entryDy=0;entryPerimeter=0;" parent="1" source="9" target="19" edge="1">
                    <mxGeometry relative="1" as="geometry">
                        <mxPoint x="320.82" y="200" as="sourcePoint"/>
                        <mxPoint x="240.82" y="200" as="targetPoint"/>
                        <Array as="points">
                            <mxPoint x="390.82" y="200"/>
                            <mxPoint x="270.82" y="200"/>
                        </Array>
                    </mxGeometry>
                </mxCell>
                <mxCell id="18" value="&lt;font style=&quot;font-size: 8px&quot;&gt;for([les information sont incorrectes])&lt;/font&gt;" style="text;html=1;strokeColor=none;fillColor=none;align=center;verticalAlign=middle;whiteSpace=wrap;rounded=0;" parent="1" vertex="1">
                    <mxGeometry x="135.82" y="220" width="135" height="17" as="geometry"/>
                </mxCell>
                <mxCell id="19" value="" style="html=1;points=[];perimeter=orthogonalPerimeter;" parent="1" vertex="1">
                    <mxGeometry x="125.82" y="150" width="10" height="290" as="geometry"/>
                </mxCell>
                <mxCell id="21" value="&lt;font style=&quot;font-size: 12px&quot;&gt;saisir les information d'instcription&lt;/font&gt;" style="html=1;verticalAlign=bottom;endArrow=open;entryX=0.514;entryY=0.185;entryDx=0;entryDy=0;entryPerimeter=0;endFill=0;" parent="1" edge="1">
                    <mxGeometry width="80" relative="1" as="geometry">
                        <mxPoint x="140.82" y="270" as="sourcePoint"/>
                        <mxPoint x="440.8999999999999" y="270" as="targetPoint"/>
                    </mxGeometry>
                </mxCell>
                <mxCell id="24" value="" style="html=1;points=[];perimeter=orthogonalPerimeter;" parent="1" vertex="1">
                    <mxGeometry x="687.82" y="272" width="10" height="98" as="geometry"/>
                </mxCell>
                <mxCell id="25" value="&lt;font style=&quot;font-size: 8px&quot;&gt;if([les information sont correctes])&lt;/font&gt;" style="text;html=1;strokeColor=none;fillColor=none;align=center;verticalAlign=middle;whiteSpace=wrap;rounded=0;" parent="1" vertex="1">
                    <mxGeometry x="136.82" y="291" width="125" height="10" as="geometry"/>
                </mxCell>
                <mxCell id="26" value="&lt;font style=&quot;font-size: 12px&quot;&gt;les informationns sont corrects&lt;/font&gt;" style="html=1;verticalAlign=bottom;endArrow=open;dashed=1;endSize=8;fontSize=10;entryX=0.53;entryY=0.3;entryDx=0;entryDy=0;entryPerimeter=0;" parent="1" edge="1">
                    <mxGeometry relative="1" as="geometry">
                        <mxPoint x="685.82" y="317" as="sourcePoint"/>
                        <mxPoint x="445.6200000000002" y="317" as="targetPoint"/>
                    </mxGeometry>
                </mxCell>
                <mxCell id="27" value="&lt;font style=&quot;font-size: 12px&quot;&gt;l'inscription se temine&lt;/font&gt;" style="html=1;verticalAlign=bottom;endArrow=open;dashed=1;endSize=8;fontSize=10;entryX=0.53;entryY=0.3;entryDx=0;entryDy=0;entryPerimeter=0;" parent="1" edge="1">
                    <mxGeometry relative="1" as="geometry">
                        <mxPoint x="440.82" y="326" as="sourcePoint"/>
                        <mxPoint x="135.82000000000016" y="325.5" as="targetPoint"/>
                    </mxGeometry>
                </mxCell>
                <mxCell id="28" value="" style="endArrow=none;dashed=1;html=1;fontSize=12;entryX=0.999;entryY=0.51;entryDx=0;entryDy=0;entryPerimeter=0;exitX=0;exitY=0.5;exitDx=0;exitDy=0;exitPerimeter=0;" parent="1" source="12" target="12" edge="1">
                    <mxGeometry width="50" height="50" relative="1" as="geometry">
                        <mxPoint x="240.82" y="590" as="sourcePoint"/>
                        <mxPoint x="290.82" y="540" as="targetPoint"/>
                    </mxGeometry>
                </mxCell>
                <mxCell id="29" value="&lt;span style=&quot;font-size: 12px&quot;&gt;saisir les information&lt;/span&gt;" style="html=1;verticalAlign=bottom;endArrow=open;entryX=0.514;entryY=0.185;entryDx=0;entryDy=0;entryPerimeter=0;endFill=0;" parent="1" edge="1">
                    <mxGeometry width="80" relative="1" as="geometry">
                        <mxPoint x="440.82" y="270" as="sourcePoint"/>
                        <mxPoint x="690.9" y="270" as="targetPoint"/>
                    </mxGeometry>
                </mxCell>
                <mxCell id="30" value="&lt;font style=&quot;font-size: 8px&quot;&gt;else[les information sont incorrectes]&lt;/font&gt;" style="text;html=1;strokeColor=none;fillColor=none;align=center;verticalAlign=middle;whiteSpace=wrap;rounded=0;" parent="1" vertex="1">
                    <mxGeometry x="134.82" y="340" width="140" height="10" as="geometry"/>
                </mxCell>
                <mxCell id="31" value="&lt;font style=&quot;font-size: 12px&quot;&gt;les informationns sont incorrects&lt;/font&gt;" style="html=1;verticalAlign=bottom;endArrow=open;dashed=1;endSize=8;fontSize=10;entryX=0.53;entryY=0.3;entryDx=0;entryDy=0;entryPerimeter=0;" parent="1" edge="1">
                    <mxGeometry relative="1" as="geometry">
                        <mxPoint x="686.0200000000001" y="363" as="sourcePoint"/>
                        <mxPoint x="445.82000000000016" y="363" as="targetPoint"/>
                    </mxGeometry>
                </mxCell>
                <mxCell id="32" value="&lt;span style=&quot;font-size: 12px&quot;&gt;essayer a nouveau&lt;/span&gt;" style="html=1;verticalAlign=bottom;endArrow=open;dashed=1;endSize=8;fontSize=10;entryX=0.53;entryY=0.3;entryDx=0;entryDy=0;entryPerimeter=0;" parent="1" edge="1">
                    <mxGeometry relative="1" as="geometry">
                        <mxPoint x="440.82" y="376.5" as="sourcePoint"/>
                        <mxPoint x="135.82000000000022" y="376" as="targetPoint"/>
                    </mxGeometry>
                </mxCell>
                <mxCell id="33" value="Alt" style="shape=umlFrame;whiteSpace=wrap;html=1;width=40;height=20;" parent="1" vertex="1">
                    <mxGeometry x="0.8200000000000003" y="521.5" width="815" height="360" as="geometry"/>
                </mxCell>
                <mxCell id="34" value="" style="html=1;points=[];perimeter=orthogonalPerimeter;" parent="1" vertex="1">
                    <mxGeometry x="124.82" y="480" width="10" height="370" as="geometry"/>
                </mxCell>
                <mxCell id="35" value="ouvrir un site" style="html=1;verticalAlign=bottom;endArrow=open;entryX=0.495;entryY=0.104;entryDx=0;entryDy=0;entryPerimeter=0;endFill=0;" parent="1" edge="1">
                    <mxGeometry width="80" relative="1" as="geometry">
                        <mxPoint x="140.82" y="510" as="sourcePoint"/>
                        <mxPoint x="438.82" y="510" as="targetPoint"/>
                    </mxGeometry>
                </mxCell>
                <mxCell id="36" value="&lt;font style=&quot;font-size: 11px&quot;&gt;Correct data&amp;nbsp;&lt;/font&gt;" style="text;html=1;strokeColor=none;fillColor=none;align=center;verticalAlign=middle;whiteSpace=wrap;rounded=0;" parent="1" vertex="1">
                    <mxGeometry x="39.82" y="521.5" width="86" height="17" as="geometry"/>
                </mxCell>
                <mxCell id="38" value="&lt;span style=&quot;font-size: 12px&quot;&gt;Reserver un stade&lt;/span&gt;" style="html=1;verticalAlign=bottom;endArrow=open;entryX=0.514;entryY=0.185;entryDx=0;entryDy=0;entryPerimeter=0;endFill=0;" parent="1" edge="1">
                    <mxGeometry width="80" relative="1" as="geometry">
                        <mxPoint x="136.82" y="560" as="sourcePoint"/>
                        <mxPoint x="436.8999999999999" y="560" as="targetPoint"/>
                    </mxGeometry>
                </mxCell>
                <mxCell id="39" value="&lt;span style=&quot;font-size: 12px&quot;&gt;ENvoyer request&lt;/span&gt;" style="html=1;verticalAlign=bottom;endArrow=open;entryX=0.514;entryY=0.185;entryDx=0;entryDy=0;entryPerimeter=0;endFill=0;startArrow=none;" parent="1" source="42" edge="1">
                    <mxGeometry width="80" relative="1" as="geometry">
                        <mxPoint x="440.82" y="580" as="sourcePoint"/>
                        <mxPoint x="690.9" y="580" as="targetPoint"/>
                    </mxGeometry>
                </mxCell>
                <mxCell id="41" value="&lt;span style=&quot;font-size: 12px&quot;&gt;Responce valide&lt;/span&gt;" style="html=1;verticalAlign=bottom;endArrow=open;endFill=0;dashed=1;entryX=1.218;entryY=0.381;entryDx=0;entryDy=0;entryPerimeter=0;" parent="1" edge="1">
                    <mxGeometry width="80" relative="1" as="geometry">
                        <mxPoint x="673.82" y="609" as="sourcePoint"/>
                        <mxPoint x="451.00000000000006" y="608.97" as="targetPoint"/>
                        <Array as="points">
                            <mxPoint x="593.82" y="609"/>
                        </Array>
                    </mxGeometry>
                </mxCell>
                <mxCell id="42" value="" style="html=1;points=[];perimeter=orthogonalPerimeter;" parent="1" vertex="1">
                    <mxGeometry x="435.82" y="480" width="10" height="190" as="geometry"/>
                </mxCell>
                <mxCell id="47" value="&lt;span style=&quot;font-size: 12px&quot;&gt;Reservation Donne&lt;/span&gt;" style="html=1;verticalAlign=bottom;endArrow=open;entryX=1.402;entryY=0.331;entryDx=0;entryDy=0;entryPerimeter=0;endFill=0;dashed=1;" parent="1" edge="1">
                    <mxGeometry width="80" relative="1" as="geometry">
                        <mxPoint x="430.82" y="617" as="sourcePoint"/>
                        <mxPoint x="138.83999999999997" y="617.47" as="targetPoint"/>
                    </mxGeometry>
                </mxCell>
                <mxCell id="50" value="" style="html=1;verticalAlign=bottom;endArrow=none;entryX=-0.001;entryY=0.366;entryDx=0;entryDy=0;entryPerimeter=0;endFill=0;exitX=1.002;exitY=0.525;exitDx=0;exitDy=0;exitPerimeter=0;dashed=1;" parent="1" target="33" edge="1">
                    <mxGeometry width="80" relative="1" as="geometry">
                        <mxPoint x="817.32" y="650" as="sourcePoint"/>
                        <mxPoint x="65.81999999999996" y="651" as="targetPoint"/>
                    </mxGeometry>
                </mxCell>
                <mxCell id="51" value="" style="html=1;points=[];perimeter=orthogonalPerimeter;" parent="1" vertex="1">
                    <mxGeometry x="685.82" y="780" width="10" height="40" as="geometry"/>
                </mxCell>
                <mxCell id="52" value="&lt;span style=&quot;font-size: 12px&quot;&gt;Responce invalide&lt;/span&gt;" style="html=1;verticalAlign=bottom;endArrow=open;endFill=0;dashed=1;entryX=1.218;entryY=0.381;entryDx=0;entryDy=0;entryPerimeter=0;" parent="1" edge="1">
                    <mxGeometry width="80" relative="1" as="geometry">
                        <mxPoint x="685.82" y="800.03" as="sourcePoint"/>
                        <mxPoint x="463.00000000000006" y="800" as="targetPoint"/>
                        <Array as="points">
                            <mxPoint x="605.82" y="800.03"/>
                        </Array>
                    </mxGeometry>
                </mxCell>
                <mxCell id="54" value="&lt;font style=&quot;font-size: 11px&quot;&gt;inCorrect data&amp;nbsp;&lt;/font&gt;" style="text;html=1;strokeColor=none;fillColor=none;align=center;verticalAlign=middle;whiteSpace=wrap;rounded=0;" parent="1" vertex="1">
                    <mxGeometry x="1.8200000000000003" y="656.5" width="86" height="17" as="geometry"/>
                </mxCell>
                <mxCell id="58" value="&lt;span style=&quot;font-size: 12px&quot;&gt;Reservation anuuler&lt;/span&gt;" style="html=1;verticalAlign=bottom;endArrow=open;entryX=1.402;entryY=0.331;entryDx=0;entryDy=0;entryPerimeter=0;endFill=0;dashed=1;" parent="1" edge="1">
                    <mxGeometry width="80" relative="1" as="geometry">
                        <mxPoint x="435.81999999999994" y="830" as="sourcePoint"/>
                        <mxPoint x="143.83999999999992" y="830.47" as="targetPoint"/>
                    </mxGeometry>
                </mxCell>
            </root>
        </mxGraphModel>
    </diagram>
</mxfile>